<?xml version="1.0" encoding="utf-8" standalone="no"?>
<!DOCTYPE svg PUBLIC "-//W3C//DTD SVG 1.1//EN"
  "http://www.w3.org/Graphics/SVG/1.1/DTD/svg11.dtd">
<svg xmlns:xlink="http://www.w3.org/1999/xlink" width="414.46375pt" height="325.986375pt" viewBox="0 0 414.46375 325.986375" xmlns="http://www.w3.org/2000/svg" version="1.1">
 <metadata>
  <rdf:RDF xmlns:dc="http://purl.org/dc/elements/1.1/" xmlns:cc="http://creativecommons.org/ns#" xmlns:rdf="http://www.w3.org/1999/02/22-rdf-syntax-ns#">
   <cc:Work>
    <dc:type rdf:resource="http://purl.org/dc/dcmitype/StillImage"/>
    <dc:date>2024-10-07T19:35:20.895324</dc:date>
    <dc:format>image/svg+xml</dc:format>
    <dc:creator>
     <cc:Agent>
      <dc:title>Matplotlib v3.9.2, https://matplotlib.org/</dc:title>
     </cc:Agent>
    </dc:creator>
   </cc:Work>
  </rdf:RDF>
 </metadata>
 <defs>
  <style type="text/css">*{stroke-linejoin: round; stroke-linecap: butt}</style>
 </defs>
 <g id="figure_1">
  <g id="patch_1">
   <path d="M 0 325.986375 
L 414.46375 325.986375 
L 414.46375 0 
L 0 0 
z
" style="fill: #ffffff"/>
  </g>
  <g id="axes_1">
   <g id="patch_2">
    <path d="M 50.14375 288.430125 
L 407.26375 288.430125 
L 407.26375 22.318125 
L 50.14375 22.318125 
z
" style="fill: #ffffff"/>
   </g>
   <g id="matplotlib.axis_1">
    <g id="xtick_1">
     <g id="line2d_1">
      <path d="M 66.376477 288.430125 
L 66.376477 22.318125 
" clip-path="url(#pf5ca3e25f5)" style="fill: none; stroke: #b0b0b0; stroke-width: 0.8; stroke-linecap: square"/>
     </g>
     <g id="line2d_2">
      <defs>
       <path id="mbaba19cbbd" d="M 0 0 
L 0 3.5 
" style="stroke: #000000; stroke-width: 0.8"/>
      </defs>
      <g>
       <use xlink:href="#mbaba19cbbd" x="66.376477" y="288.430125" style="stroke: #000000; stroke-width: 0.8"/>
      </g>
     </g>
     <g id="text_1">
      <!-- 0.0 -->
      <g transform="translate(58.424915 303.028562) scale(0.1 -0.1)">
       <defs>
        <path id="DejaVuSans-30" d="M 2034 4250 
Q 1547 4250 1301 3770 
Q 1056 3291 1056 2328 
Q 1056 1369 1301 889 
Q 1547 409 2034 409 
Q 2525 409 2770 889 
Q 3016 1369 3016 2328 
Q 3016 3291 2770 3770 
Q 2525 4250 2034 4250 
z
M 2034 4750 
Q 2819 4750 3233 4129 
Q 3647 3509 3647 2328 
Q 3647 1150 3233 529 
Q 2819 -91 2034 -91 
Q 1250 -91 836 529 
Q 422 1150 422 2328 
Q 422 3509 836 4129 
Q 1250 4750 2034 4750 
z
" transform="scale(0.015625)"/>
        <path id="DejaVuSans-2e" d="M 684 794 
L 1344 794 
L 1344 0 
L 684 0 
L 684 794 
z
" transform="scale(0.015625)"/>
       </defs>
       <use xlink:href="#DejaVuSans-30"/>
       <use xlink:href="#DejaVuSans-2e" x="63.623047"/>
       <use xlink:href="#DejaVuSans-30" x="95.410156"/>
      </g>
     </g>
    </g>
    <g id="xtick_2">
     <g id="line2d_3">
      <path d="M 131.307386 288.430125 
L 131.307386 22.318125 
" clip-path="url(#pf5ca3e25f5)" style="fill: none; stroke: #b0b0b0; stroke-width: 0.8; stroke-linecap: square"/>
     </g>
     <g id="line2d_4">
      <g>
       <use xlink:href="#mbaba19cbbd" x="131.307386" y="288.430125" style="stroke: #000000; stroke-width: 0.8"/>
      </g>
     </g>
     <g id="text_2">
      <!-- 0.2 -->
      <g transform="translate(123.355824 303.028562) scale(0.1 -0.1)">
       <defs>
        <path id="DejaVuSans-32" d="M 1228 531 
L 3431 531 
L 3431 0 
L 469 0 
L 469 531 
Q 828 903 1448 1529 
Q 2069 2156 2228 2338 
Q 2531 2678 2651 2914 
Q 2772 3150 2772 3378 
Q 2772 3750 2511 3984 
Q 2250 4219 1831 4219 
Q 1534 4219 1204 4116 
Q 875 4013 500 3803 
L 500 4441 
Q 881 4594 1212 4672 
Q 1544 4750 1819 4750 
Q 2544 4750 2975 4387 
Q 3406 4025 3406 3419 
Q 3406 3131 3298 2873 
Q 3191 2616 2906 2266 
Q 2828 2175 2409 1742 
Q 1991 1309 1228 531 
z
" transform="scale(0.015625)"/>
       </defs>
       <use xlink:href="#DejaVuSans-30"/>
       <use xlink:href="#DejaVuSans-2e" x="63.623047"/>
       <use xlink:href="#DejaVuSans-32" x="95.410156"/>
      </g>
     </g>
    </g>
    <g id="xtick_3">
     <g id="line2d_5">
      <path d="M 196.238295 288.430125 
L 196.238295 22.318125 
" clip-path="url(#pf5ca3e25f5)" style="fill: none; stroke: #b0b0b0; stroke-width: 0.8; stroke-linecap: square"/>
     </g>
     <g id="line2d_6">
      <g>
       <use xlink:href="#mbaba19cbbd" x="196.238295" y="288.430125" style="stroke: #000000; stroke-width: 0.8"/>
      </g>
     </g>
     <g id="text_3">
      <!-- 0.4 -->
      <g transform="translate(188.286733 303.028562) scale(0.1 -0.1)">
       <defs>
        <path id="DejaVuSans-34" d="M 2419 4116 
L 825 1625 
L 2419 1625 
L 2419 4116 
z
M 2253 4666 
L 3047 4666 
L 3047 1625 
L 3713 1625 
L 3713 1100 
L 3047 1100 
L 3047 0 
L 2419 0 
L 2419 1100 
L 313 1100 
L 313 1709 
L 2253 4666 
z
" transform="scale(0.015625)"/>
       </defs>
       <use xlink:href="#DejaVuSans-30"/>
       <use xlink:href="#DejaVuSans-2e" x="63.623047"/>
       <use xlink:href="#DejaVuSans-34" x="95.410156"/>
      </g>
     </g>
    </g>
    <g id="xtick_4">
     <g id="line2d_7">
      <path d="M 261.169205 288.430125 
L 261.169205 22.318125 
" clip-path="url(#pf5ca3e25f5)" style="fill: none; stroke: #b0b0b0; stroke-width: 0.8; stroke-linecap: square"/>
     </g>
     <g id="line2d_8">
      <g>
       <use xlink:href="#mbaba19cbbd" x="261.169205" y="288.430125" style="stroke: #000000; stroke-width: 0.8"/>
      </g>
     </g>
     <g id="text_4">
      <!-- 0.6 -->
      <g transform="translate(253.217642 303.028562) scale(0.1 -0.1)">
       <defs>
        <path id="DejaVuSans-36" d="M 2113 2584 
Q 1688 2584 1439 2293 
Q 1191 2003 1191 1497 
Q 1191 994 1439 701 
Q 1688 409 2113 409 
Q 2538 409 2786 701 
Q 3034 994 3034 1497 
Q 3034 2003 2786 2293 
Q 2538 2584 2113 2584 
z
M 3366 4563 
L 3366 3988 
Q 3128 4100 2886 4159 
Q 2644 4219 2406 4219 
Q 1781 4219 1451 3797 
Q 1122 3375 1075 2522 
Q 1259 2794 1537 2939 
Q 1816 3084 2150 3084 
Q 2853 3084 3261 2657 
Q 3669 2231 3669 1497 
Q 3669 778 3244 343 
Q 2819 -91 2113 -91 
Q 1303 -91 875 529 
Q 447 1150 447 2328 
Q 447 3434 972 4092 
Q 1497 4750 2381 4750 
Q 2619 4750 2861 4703 
Q 3103 4656 3366 4563 
z
" transform="scale(0.015625)"/>
       </defs>
       <use xlink:href="#DejaVuSans-30"/>
       <use xlink:href="#DejaVuSans-2e" x="63.623047"/>
       <use xlink:href="#DejaVuSans-36" x="95.410156"/>
      </g>
     </g>
    </g>
    <g id="xtick_5">
     <g id="line2d_9">
      <path d="M 326.100114 288.430125 
L 326.100114 22.318125 
" clip-path="url(#pf5ca3e25f5)" style="fill: none; stroke: #b0b0b0; stroke-width: 0.8; stroke-linecap: square"/>
     </g>
     <g id="line2d_10">
      <g>
       <use xlink:href="#mbaba19cbbd" x="326.100114" y="288.430125" style="stroke: #000000; stroke-width: 0.8"/>
      </g>
     </g>
     <g id="text_5">
      <!-- 0.8 -->
      <g transform="translate(318.148551 303.028562) scale(0.1 -0.1)">
       <defs>
        <path id="DejaVuSans-38" d="M 2034 2216 
Q 1584 2216 1326 1975 
Q 1069 1734 1069 1313 
Q 1069 891 1326 650 
Q 1584 409 2034 409 
Q 2484 409 2743 651 
Q 3003 894 3003 1313 
Q 3003 1734 2745 1975 
Q 2488 2216 2034 2216 
z
M 1403 2484 
Q 997 2584 770 2862 
Q 544 3141 544 3541 
Q 544 4100 942 4425 
Q 1341 4750 2034 4750 
Q 2731 4750 3128 4425 
Q 3525 4100 3525 3541 
Q 3525 3141 3298 2862 
Q 3072 2584 2669 2484 
Q 3125 2378 3379 2068 
Q 3634 1759 3634 1313 
Q 3634 634 3220 271 
Q 2806 -91 2034 -91 
Q 1263 -91 848 271 
Q 434 634 434 1313 
Q 434 1759 690 2068 
Q 947 2378 1403 2484 
z
M 1172 3481 
Q 1172 3119 1398 2916 
Q 1625 2713 2034 2713 
Q 2441 2713 2670 2916 
Q 2900 3119 2900 3481 
Q 2900 3844 2670 4047 
Q 2441 4250 2034 4250 
Q 1625 4250 1398 4047 
Q 1172 3844 1172 3481 
z
" transform="scale(0.015625)"/>
       </defs>
       <use xlink:href="#DejaVuSans-30"/>
       <use xlink:href="#DejaVuSans-2e" x="63.623047"/>
       <use xlink:href="#DejaVuSans-38" x="95.410156"/>
      </g>
     </g>
    </g>
    <g id="xtick_6">
     <g id="line2d_11">
      <path d="M 391.031023 288.430125 
L 391.031023 22.318125 
" clip-path="url(#pf5ca3e25f5)" style="fill: none; stroke: #b0b0b0; stroke-width: 0.8; stroke-linecap: square"/>
     </g>
     <g id="line2d_12">
      <g>
       <use xlink:href="#mbaba19cbbd" x="391.031023" y="288.430125" style="stroke: #000000; stroke-width: 0.8"/>
      </g>
     </g>
     <g id="text_6">
      <!-- 1.0 -->
      <g transform="translate(383.07946 303.028562) scale(0.1 -0.1)">
       <defs>
        <path id="DejaVuSans-31" d="M 794 531 
L 1825 531 
L 1825 4091 
L 703 3866 
L 703 4441 
L 1819 4666 
L 2450 4666 
L 2450 531 
L 3481 531 
L 3481 0 
L 794 0 
L 794 531 
z
" transform="scale(0.015625)"/>
       </defs>
       <use xlink:href="#DejaVuSans-31"/>
       <use xlink:href="#DejaVuSans-2e" x="63.623047"/>
       <use xlink:href="#DejaVuSans-30" x="95.410156"/>
      </g>
     </g>
    </g>
    <g id="text_7">
     <!-- Utilization -->
     <g transform="translate(203.651406 316.706687) scale(0.1 -0.1)">
      <defs>
       <path id="DejaVuSans-55" d="M 556 4666 
L 1191 4666 
L 1191 1831 
Q 1191 1081 1462 751 
Q 1734 422 2344 422 
Q 2950 422 3222 751 
Q 3494 1081 3494 1831 
L 3494 4666 
L 4128 4666 
L 4128 1753 
Q 4128 841 3676 375 
Q 3225 -91 2344 -91 
Q 1459 -91 1007 375 
Q 556 841 556 1753 
L 556 4666 
z
" transform="scale(0.015625)"/>
       <path id="DejaVuSans-74" d="M 1172 4494 
L 1172 3500 
L 2356 3500 
L 2356 3053 
L 1172 3053 
L 1172 1153 
Q 1172 725 1289 603 
Q 1406 481 1766 481 
L 2356 481 
L 2356 0 
L 1766 0 
Q 1100 0 847 248 
Q 594 497 594 1153 
L 594 3053 
L 172 3053 
L 172 3500 
L 594 3500 
L 594 4494 
L 1172 4494 
z
" transform="scale(0.015625)"/>
       <path id="DejaVuSans-69" d="M 603 3500 
L 1178 3500 
L 1178 0 
L 603 0 
L 603 3500 
z
M 603 4863 
L 1178 4863 
L 1178 4134 
L 603 4134 
L 603 4863 
z
" transform="scale(0.015625)"/>
       <path id="DejaVuSans-6c" d="M 603 4863 
L 1178 4863 
L 1178 0 
L 603 0 
L 603 4863 
z
" transform="scale(0.015625)"/>
       <path id="DejaVuSans-7a" d="M 353 3500 
L 3084 3500 
L 3084 2975 
L 922 459 
L 3084 459 
L 3084 0 
L 275 0 
L 275 525 
L 2438 3041 
L 353 3041 
L 353 3500 
z
" transform="scale(0.015625)"/>
       <path id="DejaVuSans-61" d="M 2194 1759 
Q 1497 1759 1228 1600 
Q 959 1441 959 1056 
Q 959 750 1161 570 
Q 1363 391 1709 391 
Q 2188 391 2477 730 
Q 2766 1069 2766 1631 
L 2766 1759 
L 2194 1759 
z
M 3341 1997 
L 3341 0 
L 2766 0 
L 2766 531 
Q 2569 213 2275 61 
Q 1981 -91 1556 -91 
Q 1019 -91 701 211 
Q 384 513 384 1019 
Q 384 1609 779 1909 
Q 1175 2209 1959 2209 
L 2766 2209 
L 2766 2266 
Q 2766 2663 2505 2880 
Q 2244 3097 1772 3097 
Q 1472 3097 1187 3025 
Q 903 2953 641 2809 
L 641 3341 
Q 956 3463 1253 3523 
Q 1550 3584 1831 3584 
Q 2591 3584 2966 3190 
Q 3341 2797 3341 1997 
z
" transform="scale(0.015625)"/>
       <path id="DejaVuSans-6f" d="M 1959 3097 
Q 1497 3097 1228 2736 
Q 959 2375 959 1747 
Q 959 1119 1226 758 
Q 1494 397 1959 397 
Q 2419 397 2687 759 
Q 2956 1122 2956 1747 
Q 2956 2369 2687 2733 
Q 2419 3097 1959 3097 
z
M 1959 3584 
Q 2709 3584 3137 3096 
Q 3566 2609 3566 1747 
Q 3566 888 3137 398 
Q 2709 -91 1959 -91 
Q 1206 -91 779 398 
Q 353 888 353 1747 
Q 353 2609 779 3096 
Q 1206 3584 1959 3584 
z
" transform="scale(0.015625)"/>
       <path id="DejaVuSans-6e" d="M 3513 2113 
L 3513 0 
L 2938 0 
L 2938 2094 
Q 2938 2591 2744 2837 
Q 2550 3084 2163 3084 
Q 1697 3084 1428 2787 
Q 1159 2491 1159 1978 
L 1159 0 
L 581 0 
L 581 3500 
L 1159 3500 
L 1159 2956 
Q 1366 3272 1645 3428 
Q 1925 3584 2291 3584 
Q 2894 3584 3203 3211 
Q 3513 2838 3513 2113 
z
" transform="scale(0.015625)"/>
      </defs>
      <use xlink:href="#DejaVuSans-55"/>
      <use xlink:href="#DejaVuSans-74" x="73.193359"/>
      <use xlink:href="#DejaVuSans-69" x="112.402344"/>
      <use xlink:href="#DejaVuSans-6c" x="140.185547"/>
      <use xlink:href="#DejaVuSans-69" x="167.96875"/>
      <use xlink:href="#DejaVuSans-7a" x="195.751953"/>
      <use xlink:href="#DejaVuSans-61" x="248.242188"/>
      <use xlink:href="#DejaVuSans-74" x="309.521484"/>
      <use xlink:href="#DejaVuSans-69" x="348.730469"/>
      <use xlink:href="#DejaVuSans-6f" x="376.513672"/>
      <use xlink:href="#DejaVuSans-6e" x="437.695312"/>
     </g>
    </g>
   </g>
   <g id="matplotlib.axis_2">
    <g id="ytick_1">
     <g id="line2d_13">
      <path d="M 50.14375 276.334125 
L 407.26375 276.334125 
" clip-path="url(#pf5ca3e25f5)" style="fill: none; stroke: #b0b0b0; stroke-width: 0.8; stroke-linecap: square"/>
     </g>
     <g id="line2d_14">
      <defs>
       <path id="m8667febbe4" d="M 0 0 
L -3.5 0 
" style="stroke: #000000; stroke-width: 0.8"/>
      </defs>
      <g>
       <use xlink:href="#m8667febbe4" x="50.14375" y="276.334125" style="stroke: #000000; stroke-width: 0.8"/>
      </g>
     </g>
     <g id="text_8">
      <!-- 0.00 -->
      <g transform="translate(20.878125 280.133344) scale(0.1 -0.1)">
       <use xlink:href="#DejaVuSans-30"/>
       <use xlink:href="#DejaVuSans-2e" x="63.623047"/>
       <use xlink:href="#DejaVuSans-30" x="95.410156"/>
       <use xlink:href="#DejaVuSans-30" x="159.033203"/>
      </g>
     </g>
    </g>
    <g id="ytick_2">
     <g id="line2d_15">
      <path d="M 50.14375 236.014125 
L 407.26375 236.014125 
" clip-path="url(#pf5ca3e25f5)" style="fill: none; stroke: #b0b0b0; stroke-width: 0.8; stroke-linecap: square"/>
     </g>
     <g id="line2d_16">
      <g>
       <use xlink:href="#m8667febbe4" x="50.14375" y="236.014125" style="stroke: #000000; stroke-width: 0.8"/>
      </g>
     </g>
     <g id="text_9">
      <!-- 0.05 -->
      <g transform="translate(20.878125 239.813344) scale(0.1 -0.1)">
       <defs>
        <path id="DejaVuSans-35" d="M 691 4666 
L 3169 4666 
L 3169 4134 
L 1269 4134 
L 1269 2991 
Q 1406 3038 1543 3061 
Q 1681 3084 1819 3084 
Q 2600 3084 3056 2656 
Q 3513 2228 3513 1497 
Q 3513 744 3044 326 
Q 2575 -91 1722 -91 
Q 1428 -91 1123 -41 
Q 819 9 494 109 
L 494 744 
Q 775 591 1075 516 
Q 1375 441 1709 441 
Q 2250 441 2565 725 
Q 2881 1009 2881 1497 
Q 2881 1984 2565 2268 
Q 2250 2553 1709 2553 
Q 1456 2553 1204 2497 
Q 953 2441 691 2322 
L 691 4666 
z
" transform="scale(0.015625)"/>
       </defs>
       <use xlink:href="#DejaVuSans-30"/>
       <use xlink:href="#DejaVuSans-2e" x="63.623047"/>
       <use xlink:href="#DejaVuSans-30" x="95.410156"/>
       <use xlink:href="#DejaVuSans-35" x="159.033203"/>
      </g>
     </g>
    </g>
    <g id="ytick_3">
     <g id="line2d_17">
      <path d="M 50.14375 195.694125 
L 407.26375 195.694125 
" clip-path="url(#pf5ca3e25f5)" style="fill: none; stroke: #b0b0b0; stroke-width: 0.8; stroke-linecap: square"/>
     </g>
     <g id="line2d_18">
      <g>
       <use xlink:href="#m8667febbe4" x="50.14375" y="195.694125" style="stroke: #000000; stroke-width: 0.8"/>
      </g>
     </g>
     <g id="text_10">
      <!-- 0.10 -->
      <g transform="translate(20.878125 199.493344) scale(0.1 -0.1)">
       <use xlink:href="#DejaVuSans-30"/>
       <use xlink:href="#DejaVuSans-2e" x="63.623047"/>
       <use xlink:href="#DejaVuSans-31" x="95.410156"/>
       <use xlink:href="#DejaVuSans-30" x="159.033203"/>
      </g>
     </g>
    </g>
    <g id="ytick_4">
     <g id="line2d_19">
      <path d="M 50.14375 155.374125 
L 407.26375 155.374125 
" clip-path="url(#pf5ca3e25f5)" style="fill: none; stroke: #b0b0b0; stroke-width: 0.8; stroke-linecap: square"/>
     </g>
     <g id="line2d_20">
      <g>
       <use xlink:href="#m8667febbe4" x="50.14375" y="155.374125" style="stroke: #000000; stroke-width: 0.8"/>
      </g>
     </g>
     <g id="text_11">
      <!-- 0.15 -->
      <g transform="translate(20.878125 159.173344) scale(0.1 -0.1)">
       <use xlink:href="#DejaVuSans-30"/>
       <use xlink:href="#DejaVuSans-2e" x="63.623047"/>
       <use xlink:href="#DejaVuSans-31" x="95.410156"/>
       <use xlink:href="#DejaVuSans-35" x="159.033203"/>
      </g>
     </g>
    </g>
    <g id="ytick_5">
     <g id="line2d_21">
      <path d="M 50.14375 115.054125 
L 407.26375 115.054125 
" clip-path="url(#pf5ca3e25f5)" style="fill: none; stroke: #b0b0b0; stroke-width: 0.8; stroke-linecap: square"/>
     </g>
     <g id="line2d_22">
      <g>
       <use xlink:href="#m8667febbe4" x="50.14375" y="115.054125" style="stroke: #000000; stroke-width: 0.8"/>
      </g>
     </g>
     <g id="text_12">
      <!-- 0.20 -->
      <g transform="translate(20.878125 118.853344) scale(0.1 -0.1)">
       <use xlink:href="#DejaVuSans-30"/>
       <use xlink:href="#DejaVuSans-2e" x="63.623047"/>
       <use xlink:href="#DejaVuSans-32" x="95.410156"/>
       <use xlink:href="#DejaVuSans-30" x="159.033203"/>
      </g>
     </g>
    </g>
    <g id="ytick_6">
     <g id="line2d_23">
      <path d="M 50.14375 74.734125 
L 407.26375 74.734125 
" clip-path="url(#pf5ca3e25f5)" style="fill: none; stroke: #b0b0b0; stroke-width: 0.8; stroke-linecap: square"/>
     </g>
     <g id="line2d_24">
      <g>
       <use xlink:href="#m8667febbe4" x="50.14375" y="74.734125" style="stroke: #000000; stroke-width: 0.8"/>
      </g>
     </g>
     <g id="text_13">
      <!-- 0.25 -->
      <g transform="translate(20.878125 78.533344) scale(0.1 -0.1)">
       <use xlink:href="#DejaVuSans-30"/>
       <use xlink:href="#DejaVuSans-2e" x="63.623047"/>
       <use xlink:href="#DejaVuSans-32" x="95.410156"/>
       <use xlink:href="#DejaVuSans-35" x="159.033203"/>
      </g>
     </g>
    </g>
    <g id="ytick_7">
     <g id="line2d_25">
      <path d="M 50.14375 34.414125 
L 407.26375 34.414125 
" clip-path="url(#pf5ca3e25f5)" style="fill: none; stroke: #b0b0b0; stroke-width: 0.8; stroke-linecap: square"/>
     </g>
     <g id="line2d_26">
      <g>
       <use xlink:href="#m8667febbe4" x="50.14375" y="34.414125" style="stroke: #000000; stroke-width: 0.8"/>
      </g>
     </g>
     <g id="text_14">
      <!-- 0.30 -->
      <g transform="translate(20.878125 38.213344) scale(0.1 -0.1)">
       <defs>
        <path id="DejaVuSans-33" d="M 2597 2516 
Q 3050 2419 3304 2112 
Q 3559 1806 3559 1356 
Q 3559 666 3084 287 
Q 2609 -91 1734 -91 
Q 1441 -91 1130 -33 
Q 819 25 488 141 
L 488 750 
Q 750 597 1062 519 
Q 1375 441 1716 441 
Q 2309 441 2620 675 
Q 2931 909 2931 1356 
Q 2931 1769 2642 2001 
Q 2353 2234 1838 2234 
L 1294 2234 
L 1294 2753 
L 1863 2753 
Q 2328 2753 2575 2939 
Q 2822 3125 2822 3475 
Q 2822 3834 2567 4026 
Q 2313 4219 1838 4219 
Q 1578 4219 1281 4162 
Q 984 4106 628 3988 
L 628 4550 
Q 988 4650 1302 4700 
Q 1616 4750 1894 4750 
Q 2613 4750 3031 4423 
Q 3450 4097 3450 3541 
Q 3450 3153 3228 2886 
Q 3006 2619 2597 2516 
z
" transform="scale(0.015625)"/>
       </defs>
       <use xlink:href="#DejaVuSans-30"/>
       <use xlink:href="#DejaVuSans-2e" x="63.623047"/>
       <use xlink:href="#DejaVuSans-33" x="95.410156"/>
       <use xlink:href="#DejaVuSans-30" x="159.033203"/>
      </g>
     </g>
    </g>
    <g id="text_15">
     <!-- r (%) -->
     <g transform="translate(14.798438 167.671) rotate(-90) scale(0.1 -0.1)">
      <defs>
       <path id="DejaVuSans-72" d="M 2631 2963 
Q 2534 3019 2420 3045 
Q 2306 3072 2169 3072 
Q 1681 3072 1420 2755 
Q 1159 2438 1159 1844 
L 1159 0 
L 581 0 
L 581 3500 
L 1159 3500 
L 1159 2956 
Q 1341 3275 1631 3429 
Q 1922 3584 2338 3584 
Q 2397 3584 2469 3576 
Q 2541 3569 2628 3553 
L 2631 2963 
z
" transform="scale(0.015625)"/>
       <path id="DejaVuSans-20" transform="scale(0.015625)"/>
       <path id="DejaVuSans-28" d="M 1984 4856 
Q 1566 4138 1362 3434 
Q 1159 2731 1159 2009 
Q 1159 1288 1364 580 
Q 1569 -128 1984 -844 
L 1484 -844 
Q 1016 -109 783 600 
Q 550 1309 550 2009 
Q 550 2706 781 3412 
Q 1013 4119 1484 4856 
L 1984 4856 
z
" transform="scale(0.015625)"/>
       <path id="DejaVuSans-25" d="M 4653 2053 
Q 4381 2053 4226 1822 
Q 4072 1591 4072 1178 
Q 4072 772 4226 539 
Q 4381 306 4653 306 
Q 4919 306 5073 539 
Q 5228 772 5228 1178 
Q 5228 1588 5073 1820 
Q 4919 2053 4653 2053 
z
M 4653 2450 
Q 5147 2450 5437 2106 
Q 5728 1763 5728 1178 
Q 5728 594 5436 251 
Q 5144 -91 4653 -91 
Q 4153 -91 3862 251 
Q 3572 594 3572 1178 
Q 3572 1766 3864 2108 
Q 4156 2450 4653 2450 
z
M 1428 4353 
Q 1159 4353 1004 4120 
Q 850 3888 850 3481 
Q 850 3069 1003 2837 
Q 1156 2606 1428 2606 
Q 1700 2606 1854 2837 
Q 2009 3069 2009 3481 
Q 2009 3884 1853 4118 
Q 1697 4353 1428 4353 
z
M 4250 4750 
L 4750 4750 
L 1831 -91 
L 1331 -91 
L 4250 4750 
z
M 1428 4750 
Q 1922 4750 2215 4408 
Q 2509 4066 2509 3481 
Q 2509 2891 2217 2550 
Q 1925 2209 1428 2209 
Q 931 2209 642 2551 
Q 353 2894 353 3481 
Q 353 4063 643 4406 
Q 934 4750 1428 4750 
z
" transform="scale(0.015625)"/>
       <path id="DejaVuSans-29" d="M 513 4856 
L 1013 4856 
Q 1481 4119 1714 3412 
Q 1947 2706 1947 2009 
Q 1947 1309 1714 600 
Q 1481 -109 1013 -844 
L 513 -844 
Q 928 -128 1133 580 
Q 1338 1288 1338 2009 
Q 1338 2731 1133 3434 
Q 928 4138 513 4856 
z
" transform="scale(0.015625)"/>
      </defs>
      <use xlink:href="#DejaVuSans-72"/>
      <use xlink:href="#DejaVuSans-20" x="41.113281"/>
      <use xlink:href="#DejaVuSans-28" x="72.900391"/>
      <use xlink:href="#DejaVuSans-25" x="111.914062"/>
      <use xlink:href="#DejaVuSans-29" x="206.933594"/>
     </g>
    </g>
   </g>
   <g id="line2d_27">
    <path d="M 66.376477 272.302125 
L 84.322206 271.328787 
L 100.636505 270.241439 
L 115.319374 269.062246 
L 130.002242 267.654829 
L 143.053681 266.176673 
L 154.473691 264.678178 
L 165.8937 262.958616 
L 175.682279 261.284158 
L 185.470858 259.400077 
L 195.259438 257.280132 
L 203.416587 255.312141 
L 211.573736 253.140887 
L 219.730886 250.745375 
L 227.888035 248.102443 
L 236.045184 245.186535 
L 242.570904 242.638416 
L 249.096623 239.881841 
L 255.622343 236.899756 
L 262.148062 233.673713 
L 268.673782 230.183754 
L 275.199501 226.408288 
L 281.725221 222.32396 
L 288.25094 217.905502 
L 293.14523 214.356024 
L 298.03952 210.590919 
L 302.933809 206.597088 
L 307.828099 202.360636 
L 312.722389 197.866823 
L 317.616678 193.100017 
L 322.510968 188.043632 
L 327.405258 182.680076 
L 332.299547 176.990691 
L 337.193837 170.955681 
L 342.088126 164.55405 
L 346.982416 157.763527 
L 351.876706 150.560487 
L 356.770995 142.91987 
L 361.665285 134.815093 
L 366.559575 126.21796 
L 371.453864 117.098559 
L 376.348154 107.425165 
L 381.242443 97.164122 
L 386.136733 86.279731 
L 391.031023 74.734125 
L 391.031023 74.734125 
" clip-path="url(#pf5ca3e25f5)" style="fill: none; stroke-dasharray: 5.55,2.4; stroke-dashoffset: 0; stroke: #808080; stroke-width: 1.5"/>
   </g>
   <g id="line2d_28">
    <path d="M 66.376477 275.527725 
L 69.655816 275.410204 
L 72.935155 275.290402 
L 76.214494 275.168251 
L 79.493833 275.043682 
L 82.773171 274.916622 
L 86.05251 274.786996 
L 89.331849 274.654726 
L 92.611188 274.519729 
L 95.890527 274.38192 
L 99.169866 274.241211 
L 102.449205 274.097509 
L 105.728543 273.950718 
L 109.007882 273.800737 
L 112.287221 273.64746 
L 115.56656 273.490778 
L 118.845899 273.330576 
L 122.125238 273.166735 
L 125.404576 272.999128 
L 128.683915 272.827624 
L 131.963254 272.652087 
L 135.242593 272.472371 
L 138.521932 272.288327 
L 141.801271 272.099795 
L 145.08061 271.906609 
L 148.359948 271.708596 
L 151.639287 271.505571 
L 154.918626 271.297343 
L 158.197965 271.083708 
L 161.477304 270.864452 
L 164.756643 270.639353 
L 168.035981 270.408171 
L 171.31532 270.170659 
L 174.594659 269.926551 
L 177.873998 269.67557 
L 181.153337 269.41742 
L 184.432676 269.151792 
L 187.712014 268.878353 
L 190.991353 268.596756 
L 194.270692 268.306629 
L 197.550031 268.007579 
L 200.82937 267.699187 
L 204.108709 267.38101 
L 207.388048 267.052573 
L 210.667386 266.713373 
L 213.946725 266.362872 
L 217.226064 266.000495 
L 220.505403 265.625627 
L 223.784742 265.237613 
L 227.064081 264.835748 
L 230.343419 264.419278 
L 233.622758 263.98739 
L 236.902097 263.539213 
L 240.181436 263.073808 
L 243.460775 262.590161 
L 246.740114 262.08718 
L 250.019452 261.56368 
L 253.298791 261.01838 
L 256.57813 260.449889 
L 259.857469 259.856697 
L 263.136808 259.237156 
L 266.416147 258.589473 
L 269.695486 257.911683 
L 272.974824 257.20164 
L 276.254163 256.456983 
L 279.533502 255.67512 
L 282.812841 254.853189 
L 286.09218 253.98803 
L 289.371519 253.076141 
L 292.650857 252.11363 
L 295.930196 251.096162 
L 299.209535 250.018892 
L 302.488874 248.876387 
L 305.768213 247.662538 
L 309.047552 246.370445 
L 312.32689 244.992293 
L 315.606229 243.519186 
L 318.885568 241.940961 
L 322.164907 240.24595 
L 325.444246 238.420692 
L 328.723585 236.449575 
L 332.002924 234.314388 
L 335.282262 231.993755 
L 338.561601 229.462421 
L 341.84094 226.690324 
L 345.120279 223.641401 
L 348.399618 220.272005 
L 351.678957 216.528807 
L 354.958295 212.345949 
L 358.237634 207.641135 
L 361.516973 202.310169 
L 364.796312 196.219139 
L 368.075651 189.193018 
L 371.35499 180.99857 
L 374.634329 171.317963 
L 377.913667 159.706578 
L 381.193006 145.522795 
L 384.472345 127.80529 
L 387.751684 105.045577 
L 391.031023 74.734125 
" clip-path="url(#pf5ca3e25f5)" style="fill: none; stroke: #800080; stroke-width: 0.8; stroke-linecap: square"/>
   </g>
   <g id="line2d_29">
    <path d="M 66.376477 275.527725 
L 69.655816 275.377584 
L 72.935155 275.224578 
L 76.214494 275.068625 
L 79.493833 274.909639 
L 82.773171 274.747531 
L 86.05251 274.582207 
L 89.331849 274.413572 
L 92.611188 274.241523 
L 95.890527 274.065958 
L 99.169866 273.886767 
L 102.449205 273.703836 
L 105.728543 273.517047 
L 109.007882 273.326277 
L 112.287221 273.131397 
L 115.56656 272.932273 
L 118.845899 272.728765 
L 122.125238 272.520725 
L 125.404576 272.308003 
L 128.683915 272.090436 
L 131.963254 271.867858 
L 135.242593 271.640094 
L 138.521932 271.406961 
L 141.801271 271.168266 
L 145.08061 270.923807 
L 148.359948 270.673374 
L 151.639287 270.416745 
L 154.918626 270.153687 
L 158.197965 269.883955 
L 161.477304 269.607293 
L 164.756643 269.323428 
L 168.035981 269.032078 
L 171.31532 268.732941 
L 174.594659 268.425701 
L 177.873998 268.110024 
L 181.153337 267.785558 
L 184.432676 267.451931 
L 187.712014 267.108749 
L 190.991353 266.755597 
L 194.270692 266.392031 
L 197.550031 266.017587 
L 200.82937 265.631767 
L 204.108709 265.234045 
L 207.388048 264.823862 
L 210.667386 264.400624 
L 213.946725 263.963696 
L 217.226064 263.512403 
L 220.505403 263.046026 
L 223.784742 262.563795 
L 227.064081 262.064888 
L 230.343419 261.548424 
L 233.622758 261.01346 
L 236.902097 260.458985 
L 240.181436 259.88391 
L 243.460775 259.287066 
L 246.740114 258.667194 
L 250.019452 258.022933 
L 253.298791 257.352817 
L 256.57813 256.655256 
L 259.857469 255.92853 
L 263.136808 255.17077 
L 266.416147 254.379945 
L 269.695486 253.553843 
L 272.974824 252.690048 
L 276.254163 251.785922 
L 279.533502 250.838572 
L 282.812841 249.844823 
L 286.09218 248.801179 
L 289.371519 247.703788 
L 292.650857 246.548386 
L 295.930196 245.33025 
L 299.209535 244.044127 
L 302.488874 242.684162 
L 305.768213 241.243808 
L 309.047552 239.71572 
L 312.32689 238.09163 
L 315.606229 236.362198 
L 318.885568 234.516831 
L 322.164907 232.543466 
L 325.444246 230.42831 
L 328.723585 228.155508 
L 332.002924 225.706757 
L 335.282262 223.060799 
L 338.561601 220.192815 
L 341.84094 217.073634 
L 345.120279 213.668741 
L 348.399618 209.936998 
L 351.678957 205.828967 
L 354.958295 201.284713 
L 358.237634 196.230858 
L 361.516973 190.576587 
L 364.796312 184.208146 
L 368.075651 176.981109 
L 371.35499 168.709289 
L 374.634329 159.148475 
L 377.913667 147.971912 
L 381.193006 134.732213 
L 384.472345 118.800021 
L 387.751684 99.261031 
L 391.031023 74.734125 
" clip-path="url(#pf5ca3e25f5)" style="fill: none; stroke: #0000ff; stroke-width: 0.8; stroke-linecap: square"/>
   </g>
   <g id="line2d_30">
    <path d="M 66.376477 266.657325 
L 69.655816 266.499444 
L 72.935155 266.338529 
L 76.214494 266.174491 
L 79.493833 266.007239 
L 82.773171 265.836678 
L 86.05251 265.662707 
L 89.331849 265.485225 
L 92.611188 265.304124 
L 95.890527 265.119291 
L 99.169866 264.93061 
L 102.449205 264.73796 
L 105.728543 264.541214 
L 109.007882 264.34024 
L 112.287221 264.134901 
L 115.56656 263.925052 
L 118.845899 263.710544 
L 122.125238 263.491219 
L 125.404576 263.266913 
L 128.683915 263.037456 
L 131.963254 262.802666 
L 135.242593 262.562357 
L 138.521932 262.316331 
L 141.801271 262.064381 
L 145.08061 261.806292 
L 148.359948 261.541836 
L 151.639287 261.270774 
L 154.918626 260.992857 
L 158.197965 260.707819 
L 161.477304 260.415385 
L 164.756643 260.115263 
L 168.035981 259.807145 
L 171.31532 259.490707 
L 174.594659 259.165609 
L 177.873998 258.831489 
L 181.153337 258.487966 
L 184.432676 258.134639 
L 187.712014 257.771081 
L 190.991353 257.396841 
L 194.270692 257.011441 
L 197.550031 256.614376 
L 200.82937 256.205106 
L 204.108709 255.783061 
L 207.388048 255.347633 
L 210.667386 254.898176 
L 213.946725 254.433999 
L 217.226064 253.954368 
L 220.505403 253.458497 
L 223.784742 252.945549 
L 227.064081 252.414626 
L 230.343419 251.864764 
L 233.622758 251.294934 
L 236.902097 250.704027 
L 240.181436 250.090852 
L 243.460775 249.454125 
L 246.740114 248.792463 
L 250.019452 248.104373 
L 253.298791 247.388239 
L 256.57813 246.642309 
L 259.857469 245.864686 
L 263.136808 245.053306 
L 266.416147 244.205922 
L 269.695486 243.320083 
L 272.974824 242.39311 
L 276.254163 241.422071 
L 279.533502 240.403746 
L 282.812841 239.334596 
L 286.09218 238.210717 
L 289.371519 237.027799 
L 292.650857 235.781061 
L 295.930196 234.465198 
L 299.209535 233.074296 
L 302.488874 231.601748 
L 305.768213 230.040147 
L 309.047552 228.381163 
L 312.32689 226.615394 
L 315.606229 224.732187 
L 318.885568 222.719422 
L 322.164907 220.563255 
L 325.444246 218.247793 
L 328.723585 215.754706 
L 332.002924 213.06274 
L 335.282262 210.14711 
L 338.561601 206.978732 
L 341.84094 203.523251 
L 345.120279 199.739793 
L 348.399618 195.579335 
L 351.678957 190.982574 
L 354.958295 185.877082 
L 358.237634 180.173456 
L 361.516973 173.760045 
L 364.796312 166.495566 
L 368.075651 158.198572 
L 371.35499 148.632092 
L 374.634329 137.480634 
L 377.913667 124.314719 
L 381.193006 108.534295 
L 384.472345 89.274723 
L 387.751684 65.242868 
L 391.031023 34.414125 
" clip-path="url(#pf5ca3e25f5)" style="fill: none; stroke: #90ee90; stroke-width: 0.8; stroke-linecap: square"/>
   </g>
   <g id="line2d_31">
    <path d="M 66.376477 236.014125 
L 69.655816 235.953196 
L 72.935155 235.891057 
L 76.214494 235.827674 
L 79.493833 235.763008 
L 82.773171 235.697019 
L 86.05251 235.629667 
L 89.331849 235.560909 
L 92.611188 235.490701 
L 95.890527 235.418996 
L 99.169866 235.345745 
L 102.449205 235.270899 
L 105.728543 235.194405 
L 109.007882 235.116206 
L 112.287221 235.036247 
L 115.56656 234.954467 
L 118.845899 234.870802 
L 122.125238 234.785187 
L 125.404576 234.697554 
L 128.683915 234.607829 
L 131.963254 234.515936 
L 135.242593 234.421798 
L 138.521932 234.325329 
L 141.801271 234.226443 
L 145.08061 234.125047 
L 148.359948 234.021045 
L 151.639287 233.914335 
L 154.918626 233.80481 
L 158.197965 233.692356 
L 161.477304 233.576856 
L 164.756643 233.458182 
L 168.035981 233.336203 
L 171.31532 233.210779 
L 174.594659 233.081761 
L 177.873998 232.948994 
L 181.153337 232.81231 
L 184.432676 232.671534 
L 187.712014 232.52648 
L 190.991353 232.37695 
L 194.270692 232.222733 
L 197.550031 232.063604 
L 200.82937 231.899327 
L 204.108709 231.729647 
L 207.388048 231.554292 
L 210.667386 231.372974 
L 213.946725 231.185382 
L 217.226064 230.991187 
L 220.505403 230.790031 
L 223.784742 230.581536 
L 227.064081 230.36529 
L 230.343419 230.140855 
L 233.622758 229.907755 
L 236.902097 229.66548 
L 240.181436 229.413476 
L 243.460775 229.151146 
L 246.740114 228.877842 
L 250.019452 228.59286 
L 253.298791 228.295435 
L 256.57813 227.984734 
L 259.857469 227.659849 
L 263.136808 227.319785 
L 266.416147 226.963453 
L 269.695486 226.589658 
L 272.974824 226.197082 
L 276.254163 225.784274 
L 279.533502 225.349629 
L 282.812841 224.891366 
L 286.09218 224.407508 
L 289.371519 223.895849 
L 292.650857 223.35392 
L 295.930196 222.778955 
L 299.209535 222.167837 
L 302.488874 221.517046 
L 305.768213 220.82259 
L 309.047552 220.079919 
L 312.32689 219.283835 
L 315.606229 218.428357 
L 318.885568 217.506584 
L 322.164907 216.510497 
L 325.444246 215.430732 
L 328.723585 214.256284 
L 332.002924 212.974125 
L 335.282262 211.568728 
L 338.561601 210.021426 
L 341.84094 208.309585 
L 345.120279 206.405486 
L 348.399618 204.274811 
L 351.678957 201.874563 
L 354.958295 199.150125 
L 358.237634 196.031061 
L 361.516973 192.424936 
L 364.796312 188.208001 
L 368.075651 183.210709 
L 371.35499 177.19436 
L 374.634329 169.811854 
L 377.913667 160.538263 
L 381.193006 148.540227 
L 384.472345 132.410416 
L 387.751684 109.570605 
L 391.031023 74.734125 
" clip-path="url(#pf5ca3e25f5)" style="fill: none; stroke: #ff0000; stroke-width: 0.8; stroke-linecap: square"/>
   </g>
   <g id="line2d_32">
    <path d="M 66.376477 236.014125 
L 69.655816 235.953196 
L 72.935155 235.891057 
L 76.214494 235.827674 
L 79.493833 235.763008 
L 82.773171 235.697019 
L 86.05251 235.629667 
L 89.331849 235.560909 
L 92.611188 235.490701 
L 95.890527 235.418996 
L 99.169866 235.345745 
L 102.449205 235.270899 
L 105.728543 235.194405 
L 109.007882 235.116206 
L 112.287221 235.036247 
L 115.56656 234.954467 
L 118.845899 234.870802 
L 122.125238 234.785187 
L 125.404576 234.697554 
L 128.683915 234.607829 
L 131.963254 234.515936 
L 135.242593 234.421798 
L 138.521932 234.325329 
L 141.801271 234.226443 
L 145.08061 234.125047 
L 148.359948 234.021045 
L 151.639287 233.914335 
L 154.918626 233.80481 
L 158.197965 233.692356 
L 161.477304 233.576856 
L 164.756643 233.458182 
L 168.035981 233.336203 
L 171.31532 233.210779 
L 174.594659 233.081761 
L 177.873998 232.948994 
L 181.153337 232.81231 
L 184.432676 232.671534 
L 187.712014 232.52648 
L 190.991353 232.37695 
L 194.270692 232.222733 
L 197.550031 232.063604 
L 200.82937 231.899327 
L 204.108709 231.729647 
L 207.388048 231.554292 
L 210.667386 231.372974 
L 213.946725 231.185382 
L 217.226064 230.991187 
L 220.505403 230.790031 
L 223.784742 230.581536 
L 227.064081 230.36529 
L 230.343419 230.140855 
L 233.622758 229.907755 
L 236.902097 229.66548 
L 240.181436 229.413476 
L 243.460775 229.151146 
L 246.740114 228.877842 
L 250.019452 228.59286 
L 253.298791 228.295435 
L 256.57813 227.984734 
L 259.857469 227.659849 
L 263.136808 227.319785 
L 266.416147 226.963453 
L 269.695486 226.589658 
L 272.974824 226.197082 
L 276.254163 225.784274 
L 279.533502 225.349629 
L 282.812841 224.891366 
L 286.09218 224.407508 
L 289.371519 223.895849 
L 292.650857 223.35392 
L 295.930196 222.778955 
L 299.209535 222.167837 
L 302.488874 221.517046 
L 305.768213 220.82259 
L 309.047552 220.079919 
L 312.32689 219.283835 
L 315.606229 218.428357 
L 318.885568 217.506584 
L 322.164907 216.510497 
L 325.444246 215.430732 
L 328.723585 214.256284 
L 332.002924 212.974125 
L 335.282262 211.568728 
L 338.561601 210.021426 
L 341.84094 208.309585 
L 345.120279 206.405486 
L 348.399618 204.274811 
L 351.678957 201.874563 
L 354.958295 199.150125 
L 358.237634 196.031061 
L 361.516973 192.424936 
L 364.796312 188.208001 
L 368.075651 183.210709 
L 371.35499 177.19436 
L 374.634329 169.811854 
L 377.913667 160.538263 
L 381.193006 148.540227 
L 384.472345 132.410416 
L 387.751684 109.570605 
L 391.031023 74.734125 
" clip-path="url(#pf5ca3e25f5)" style="fill: none; stroke: #000000; stroke-width: 0.8; stroke-linecap: square"/>
   </g>
   <g id="patch_3">
    <path d="M 50.14375 288.430125 
L 50.14375 22.318125 
" style="fill: none; stroke: #000000; stroke-width: 0.8; stroke-linejoin: miter; stroke-linecap: square"/>
   </g>
   <g id="patch_4">
    <path d="M 407.26375 288.430125 
L 407.26375 22.318125 
" style="fill: none; stroke: #000000; stroke-width: 0.8; stroke-linejoin: miter; stroke-linecap: square"/>
   </g>
   <g id="patch_5">
    <path d="M 50.14375 288.430125 
L 407.26375 288.430125 
" style="fill: none; stroke: #000000; stroke-width: 0.8; stroke-linejoin: miter; stroke-linecap: square"/>
   </g>
   <g id="patch_6">
    <path d="M 50.14375 22.318125 
L 407.26375 22.318125 
" style="fill: none; stroke: #000000; stroke-width: 0.8; stroke-linejoin: miter; stroke-linecap: square"/>
   </g>
   <g id="text_16">
    <!-- Secondary Rate Model, grey is semilog as reference -->
    <g transform="translate(72.80125 16.318125) scale(0.12 -0.12)">
     <defs>
      <path id="DejaVuSans-53" d="M 3425 4513 
L 3425 3897 
Q 3066 4069 2747 4153 
Q 2428 4238 2131 4238 
Q 1616 4238 1336 4038 
Q 1056 3838 1056 3469 
Q 1056 3159 1242 3001 
Q 1428 2844 1947 2747 
L 2328 2669 
Q 3034 2534 3370 2195 
Q 3706 1856 3706 1288 
Q 3706 609 3251 259 
Q 2797 -91 1919 -91 
Q 1588 -91 1214 -16 
Q 841 59 441 206 
L 441 856 
Q 825 641 1194 531 
Q 1563 422 1919 422 
Q 2459 422 2753 634 
Q 3047 847 3047 1241 
Q 3047 1584 2836 1778 
Q 2625 1972 2144 2069 
L 1759 2144 
Q 1053 2284 737 2584 
Q 422 2884 422 3419 
Q 422 4038 858 4394 
Q 1294 4750 2059 4750 
Q 2388 4750 2728 4690 
Q 3069 4631 3425 4513 
z
" transform="scale(0.015625)"/>
      <path id="DejaVuSans-65" d="M 3597 1894 
L 3597 1613 
L 953 1613 
Q 991 1019 1311 708 
Q 1631 397 2203 397 
Q 2534 397 2845 478 
Q 3156 559 3463 722 
L 3463 178 
Q 3153 47 2828 -22 
Q 2503 -91 2169 -91 
Q 1331 -91 842 396 
Q 353 884 353 1716 
Q 353 2575 817 3079 
Q 1281 3584 2069 3584 
Q 2775 3584 3186 3129 
Q 3597 2675 3597 1894 
z
M 3022 2063 
Q 3016 2534 2758 2815 
Q 2500 3097 2075 3097 
Q 1594 3097 1305 2825 
Q 1016 2553 972 2059 
L 3022 2063 
z
" transform="scale(0.015625)"/>
      <path id="DejaVuSans-63" d="M 3122 3366 
L 3122 2828 
Q 2878 2963 2633 3030 
Q 2388 3097 2138 3097 
Q 1578 3097 1268 2742 
Q 959 2388 959 1747 
Q 959 1106 1268 751 
Q 1578 397 2138 397 
Q 2388 397 2633 464 
Q 2878 531 3122 666 
L 3122 134 
Q 2881 22 2623 -34 
Q 2366 -91 2075 -91 
Q 1284 -91 818 406 
Q 353 903 353 1747 
Q 353 2603 823 3093 
Q 1294 3584 2113 3584 
Q 2378 3584 2631 3529 
Q 2884 3475 3122 3366 
z
" transform="scale(0.015625)"/>
      <path id="DejaVuSans-64" d="M 2906 2969 
L 2906 4863 
L 3481 4863 
L 3481 0 
L 2906 0 
L 2906 525 
Q 2725 213 2448 61 
Q 2172 -91 1784 -91 
Q 1150 -91 751 415 
Q 353 922 353 1747 
Q 353 2572 751 3078 
Q 1150 3584 1784 3584 
Q 2172 3584 2448 3432 
Q 2725 3281 2906 2969 
z
M 947 1747 
Q 947 1113 1208 752 
Q 1469 391 1925 391 
Q 2381 391 2643 752 
Q 2906 1113 2906 1747 
Q 2906 2381 2643 2742 
Q 2381 3103 1925 3103 
Q 1469 3103 1208 2742 
Q 947 2381 947 1747 
z
" transform="scale(0.015625)"/>
      <path id="DejaVuSans-79" d="M 2059 -325 
Q 1816 -950 1584 -1140 
Q 1353 -1331 966 -1331 
L 506 -1331 
L 506 -850 
L 844 -850 
Q 1081 -850 1212 -737 
Q 1344 -625 1503 -206 
L 1606 56 
L 191 3500 
L 800 3500 
L 1894 763 
L 2988 3500 
L 3597 3500 
L 2059 -325 
z
" transform="scale(0.015625)"/>
      <path id="DejaVuSans-52" d="M 2841 2188 
Q 3044 2119 3236 1894 
Q 3428 1669 3622 1275 
L 4263 0 
L 3584 0 
L 2988 1197 
Q 2756 1666 2539 1819 
Q 2322 1972 1947 1972 
L 1259 1972 
L 1259 0 
L 628 0 
L 628 4666 
L 2053 4666 
Q 2853 4666 3247 4331 
Q 3641 3997 3641 3322 
Q 3641 2881 3436 2590 
Q 3231 2300 2841 2188 
z
M 1259 4147 
L 1259 2491 
L 2053 2491 
Q 2509 2491 2742 2702 
Q 2975 2913 2975 3322 
Q 2975 3731 2742 3939 
Q 2509 4147 2053 4147 
L 1259 4147 
z
" transform="scale(0.015625)"/>
      <path id="DejaVuSans-4d" d="M 628 4666 
L 1569 4666 
L 2759 1491 
L 3956 4666 
L 4897 4666 
L 4897 0 
L 4281 0 
L 4281 4097 
L 3078 897 
L 2444 897 
L 1241 4097 
L 1241 0 
L 628 0 
L 628 4666 
z
" transform="scale(0.015625)"/>
      <path id="DejaVuSans-2c" d="M 750 794 
L 1409 794 
L 1409 256 
L 897 -744 
L 494 -744 
L 750 256 
L 750 794 
z
" transform="scale(0.015625)"/>
      <path id="DejaVuSans-67" d="M 2906 1791 
Q 2906 2416 2648 2759 
Q 2391 3103 1925 3103 
Q 1463 3103 1205 2759 
Q 947 2416 947 1791 
Q 947 1169 1205 825 
Q 1463 481 1925 481 
Q 2391 481 2648 825 
Q 2906 1169 2906 1791 
z
M 3481 434 
Q 3481 -459 3084 -895 
Q 2688 -1331 1869 -1331 
Q 1566 -1331 1297 -1286 
Q 1028 -1241 775 -1147 
L 775 -588 
Q 1028 -725 1275 -790 
Q 1522 -856 1778 -856 
Q 2344 -856 2625 -561 
Q 2906 -266 2906 331 
L 2906 616 
Q 2728 306 2450 153 
Q 2172 0 1784 0 
Q 1141 0 747 490 
Q 353 981 353 1791 
Q 353 2603 747 3093 
Q 1141 3584 1784 3584 
Q 2172 3584 2450 3431 
Q 2728 3278 2906 2969 
L 2906 3500 
L 3481 3500 
L 3481 434 
z
" transform="scale(0.015625)"/>
      <path id="DejaVuSans-73" d="M 2834 3397 
L 2834 2853 
Q 2591 2978 2328 3040 
Q 2066 3103 1784 3103 
Q 1356 3103 1142 2972 
Q 928 2841 928 2578 
Q 928 2378 1081 2264 
Q 1234 2150 1697 2047 
L 1894 2003 
Q 2506 1872 2764 1633 
Q 3022 1394 3022 966 
Q 3022 478 2636 193 
Q 2250 -91 1575 -91 
Q 1294 -91 989 -36 
Q 684 19 347 128 
L 347 722 
Q 666 556 975 473 
Q 1284 391 1588 391 
Q 1994 391 2212 530 
Q 2431 669 2431 922 
Q 2431 1156 2273 1281 
Q 2116 1406 1581 1522 
L 1381 1569 
Q 847 1681 609 1914 
Q 372 2147 372 2553 
Q 372 3047 722 3315 
Q 1072 3584 1716 3584 
Q 2034 3584 2315 3537 
Q 2597 3491 2834 3397 
z
" transform="scale(0.015625)"/>
      <path id="DejaVuSans-6d" d="M 3328 2828 
Q 3544 3216 3844 3400 
Q 4144 3584 4550 3584 
Q 5097 3584 5394 3201 
Q 5691 2819 5691 2113 
L 5691 0 
L 5113 0 
L 5113 2094 
Q 5113 2597 4934 2840 
Q 4756 3084 4391 3084 
Q 3944 3084 3684 2787 
Q 3425 2491 3425 1978 
L 3425 0 
L 2847 0 
L 2847 2094 
Q 2847 2600 2669 2842 
Q 2491 3084 2119 3084 
Q 1678 3084 1418 2786 
Q 1159 2488 1159 1978 
L 1159 0 
L 581 0 
L 581 3500 
L 1159 3500 
L 1159 2956 
Q 1356 3278 1631 3431 
Q 1906 3584 2284 3584 
Q 2666 3584 2933 3390 
Q 3200 3197 3328 2828 
z
" transform="scale(0.015625)"/>
      <path id="DejaVuSans-66" d="M 2375 4863 
L 2375 4384 
L 1825 4384 
Q 1516 4384 1395 4259 
Q 1275 4134 1275 3809 
L 1275 3500 
L 2222 3500 
L 2222 3053 
L 1275 3053 
L 1275 0 
L 697 0 
L 697 3053 
L 147 3053 
L 147 3500 
L 697 3500 
L 697 3744 
Q 697 4328 969 4595 
Q 1241 4863 1831 4863 
L 2375 4863 
z
" transform="scale(0.015625)"/>
     </defs>
     <use xlink:href="#DejaVuSans-53"/>
     <use xlink:href="#DejaVuSans-65" x="63.476562"/>
     <use xlink:href="#DejaVuSans-63" x="125"/>
     <use xlink:href="#DejaVuSans-6f" x="179.980469"/>
     <use xlink:href="#DejaVuSans-6e" x="241.162109"/>
     <use xlink:href="#DejaVuSans-64" x="304.541016"/>
     <use xlink:href="#DejaVuSans-61" x="368.017578"/>
     <use xlink:href="#DejaVuSans-72" x="429.296875"/>
     <use xlink:href="#DejaVuSans-79" x="470.410156"/>
     <use xlink:href="#DejaVuSans-20" x="529.589844"/>
     <use xlink:href="#DejaVuSans-52" x="561.376953"/>
     <use xlink:href="#DejaVuSans-61" x="628.609375"/>
     <use xlink:href="#DejaVuSans-74" x="689.888672"/>
     <use xlink:href="#DejaVuSans-65" x="729.097656"/>
     <use xlink:href="#DejaVuSans-20" x="790.621094"/>
     <use xlink:href="#DejaVuSans-4d" x="822.408203"/>
     <use xlink:href="#DejaVuSans-6f" x="908.6875"/>
     <use xlink:href="#DejaVuSans-64" x="969.869141"/>
     <use xlink:href="#DejaVuSans-65" x="1033.345703"/>
     <use xlink:href="#DejaVuSans-6c" x="1094.869141"/>
     <use xlink:href="#DejaVuSans-2c" x="1122.652344"/>
     <use xlink:href="#DejaVuSans-20" x="1154.439453"/>
     <use xlink:href="#DejaVuSans-67" x="1186.226562"/>
     <use xlink:href="#DejaVuSans-72" x="1249.703125"/>
     <use xlink:href="#DejaVuSans-65" x="1288.566406"/>
     <use xlink:href="#DejaVuSans-79" x="1350.089844"/>
     <use xlink:href="#DejaVuSans-20" x="1409.269531"/>
     <use xlink:href="#DejaVuSans-69" x="1441.056641"/>
     <use xlink:href="#DejaVuSans-73" x="1468.839844"/>
     <use xlink:href="#DejaVuSans-20" x="1520.939453"/>
     <use xlink:href="#DejaVuSans-73" x="1552.726562"/>
     <use xlink:href="#DejaVuSans-65" x="1604.826172"/>
     <use xlink:href="#DejaVuSans-6d" x="1666.349609"/>
     <use xlink:href="#DejaVuSans-69" x="1763.761719"/>
     <use xlink:href="#DejaVuSans-6c" x="1791.544922"/>
     <use xlink:href="#DejaVuSans-6f" x="1819.328125"/>
     <use xlink:href="#DejaVuSans-67" x="1880.509766"/>
     <use xlink:href="#DejaVuSans-20" x="1943.986328"/>
     <use xlink:href="#DejaVuSans-61" x="1975.773438"/>
     <use xlink:href="#DejaVuSans-73" x="2037.052734"/>
     <use xlink:href="#DejaVuSans-20" x="2089.152344"/>
     <use xlink:href="#DejaVuSans-72" x="2120.939453"/>
     <use xlink:href="#DejaVuSans-65" x="2159.802734"/>
     <use xlink:href="#DejaVuSans-66" x="2221.326172"/>
     <use xlink:href="#DejaVuSans-65" x="2256.53125"/>
     <use xlink:href="#DejaVuSans-72" x="2318.054688"/>
     <use xlink:href="#DejaVuSans-65" x="2356.917969"/>
     <use xlink:href="#DejaVuSans-6e" x="2418.441406"/>
     <use xlink:href="#DejaVuSans-63" x="2481.820312"/>
     <use xlink:href="#DejaVuSans-65" x="2536.800781"/>
    </g>
   </g>
  </g>
 </g>
 <defs>
  <clipPath id="pf5ca3e25f5">
   <rect x="50.14375" y="22.318125" width="357.12" height="266.112"/>
  </clipPath>
 </defs>
</svg>
